<?xml version="1.0" encoding="utf-8"?>
<!-- Generator: Adobe Illustrator 21.0.1, SVG Export Plug-In . SVG Version: 6.00 Build 0)  -->
<svg version="1.1" id="Layer_1" xmlns="http://www.w3.org/2000/svg" xmlns:xlink="http://www.w3.org/1999/xlink" x="0px" y="0px"
	 viewBox="0 0 16 19.9" style="enable-background:new 0 0 16 19.9;" xml:space="preserve">
<style type="text/css">
	.st0{fill:#FFE100;}
	.st1{fill:url(#SVGID_1_);}
	.st2{fill:url(#SVGID_2_);}
	.st3{fill:#F7AA9A;}
</style>
<path class="st0" d="M4.4,5.6H1.7c0,0-0.6,0-0.6-0.5c0,0-0.5,0.5-0.3,1.3C1,7.1,1.5,7.3,1.7,7.3h2.7c0.4,0,0.8-0.4,0.8-0.9
	C5.2,6,4.8,5.6,4.4,5.6z"/>
<linearGradient id="SVGID_1_" gradientUnits="userSpaceOnUse" x1="8.1515" y1="25.5603" x2="8.1515" y2="14.1854">
	<stop  offset="3.217822e-02" style="stop-color:#F76574"/>
	<stop  offset="0.8787" style="stop-color:#F7AA9A"/>
</linearGradient>
<path class="st1" d="M15.3,10.3V6.7h-0.1c0-3.9-3.4-5.6-7.4-5.6S1,2.8,1,6.7v3.6c0,0.4,0.1,1,0.2,1.6c0.5-0.3,1-0.5,1.6-0.5
	c1.6,0,2.7,1,2.9,2.9c0.2,1.4-0.2,3.2-1.5,3.5c0,0.5,0.3,1.3,1.6,1.1c0,0,2.8,2.1,7-0.2C15.6,17.5,15.3,12.1,15.3,10.3z"/>
<path class="st0" d="M15.3,2.4c-0.9-1.7-4.4-2.8-7.9-2.3C5.7,0.4,4.1,1.3,2.8,1.7c-1,0.3-1.7,0.1-1.7,0.1c1.3,2,4.6,1,6.2,1.2
	c1.6,0.1,3.6,5.1,3.6,5.1l1.7,5.6c0,0,0.5,1,1.4,1.1c0.5,0.1,1.4-0.3,1.4-0.3S16.6,4.8,15.3,2.4z"/>
<path class="st0" d="M7.4,2.8c0,0-1.3,2,0.4,3.5c1.2,1.1,3,1.5,3,1.5L11,5.5L9,2.8H7.4z"/>
<path d="M2.8,7.9L2.8,7.9c-0.2,0-0.3-0.1-0.3-0.3V6.9c0-0.1,0.1-0.3,0.3-0.3l0,0c0.1,0,0.3,0.1,0.3,0.3v0.7C3.1,7.8,3,7.9,2.8,7.9z"
	/>
<path d="M1.6,7.8L1.6,7.8c-0.2,0-0.3-0.1-0.3-0.3V6.8c0-0.1,0.1-0.3,0.3-0.3l0,0c0.1,0,0.3,0.1,0.3,0.3v0.7C1.9,7.7,1.8,7.8,1.6,7.8
	z"/>
<path class="st3" d="M2.2,10.6H1.1c-0.5,0-1-0.4-1-1V9.5c0-0.5,0.4-1,1-1h1.1c0.5,0,1,0.4,1,1v0.1C3.1,10.2,2.7,10.6,2.2,10.6z"/>
<circle class="st3" cx="10.9" cy="8.7" r="1.9"/>
<path class="st0" d="M4.3,5.4L1.8,5.6c0,0-0.6,0.1-0.6-0.4c0,0-0.4,0.5-0.2,1.3c0.3,0.7,0.8,0.8,1,0.8L4.6,7C5.1,7,5.4,6.6,5.3,6.2
	C5.3,5.7,4.8,5.3,4.3,5.4z"/>
</svg>
