<?xml version="1.0" encoding="utf-8"?>
<!-- Generator: Adobe Illustrator 21.0.1, SVG Export Plug-In . SVG Version: 6.00 Build 0)  -->
<svg version="1.1" id="Layer_1" xmlns="http://www.w3.org/2000/svg" xmlns:xlink="http://www.w3.org/1999/xlink" x="0px" y="0px"
	 viewBox="0 0 73.7 107.6" style="enable-background:new 0 0 73.7 107.6;" xml:space="preserve">
<style type="text/css">
	.st0{fill:#FFCC66;}
	.st1{fill:#FABB9F;}
	.st2{fill:#333333;}
	.st3{fill:#ED2E2E;}
	.st4{fill:#FFFFFF;}
</style>
<path class="st0" d="M129,48.6h-2.4c-0.4,0-0.8-0.4-0.8-0.8l0,0c0-0.4,0.4-0.8,0.8-0.8h2.4c0.4,0,0.8,0.4,0.8,0.8l0,0
	C129.8,48.3,129.4,48.6,129,48.6z"/>
<path class="st0" d="M126,46.6c0,0-0.4,0.5-0.3,1.2s0.6,0.6,0.6,0.6l0.3-1.3C126.7,47.1,126.1,47.2,126,46.6z"/>
<path class="st1" d="M136,60.8h-4.6c-1.3,0-2.8-1.3-2.8-2.6l-0.3-0.4c0-1.3,3.4-1.3,4.7-1.3l3-0.4c1.3,0,2.4,1.1,2.4,2.4v0
	C138.4,59.7,137.3,60.8,136,60.8z"/>
<path class="st1" d="M135.8,42h-6.1c-1.9,0-3.4,1.5-3.4,3.4v6.4c0.2-0.1,0.5-0.1,0.7-0.1c1.5,0,2.7,1.4,2.7,3.2
	c0,1.3-0.4,2.3-1.3,2.8c0.4,0.2,0.8,0.4,1.3,0.4h6.1c1.9,0,3.4-1.5,3.4-3.4v-9.3C139.1,43.5,137.6,42,135.8,42z"/>
<path class="st2" d="M31.6,66L31.6,66c-0.6,0-1-0.5-1-1v-1.2c0-0.6,0.5-1,1-1h0c0.6,0,1,0.5,1,1V65C32.6,65.5,32.1,66,31.6,66z"/>
<path class="st3" d="M31.4,63.8l4.1-4.2L35,59.6c0,0-0.6,0.1-1.1,0.5c-0.4,0.5-0.3,0.9-0.3,0.9s-2.1,0.8-3.1,1.7
	c-0.8,0.8-1.4,1.2-1.6,2.7c-0.2,1.5,0.4,2.8,0.4,2.8l1.2,0.6l0.5-1.7c0,0-1.2-2.5-0.4-3.4L31.4,63.8z"/>
<path class="st2" d="M33.6,66L33.6,66c-0.6,0-1-0.5-1-1v-1.2c0-0.6,0.5-1,1-1l0,0c0.6,0,1,0.5,1,1V65C34.6,65.5,34.1,66,33.6,66z"/>
<path class="st2" d="M35.6,66L35.6,66c-0.6,0-1-0.5-1-1v-1.2c0-0.6,0.5-1,1-1l0,0c0.6,0,1,0.5,1,1V65C36.6,65.5,36.1,66,35.6,66z"/>
<path class="st2" d="M37.6,66L37.6,66c-0.6,0-1-0.5-1-1v-1.2c0-0.6,0.5-1,1-1l0,0c0.6,0,1,0.5,1,1V65C38.6,65.5,38.1,66,37.6,66z"/>
<path class="st2" d="M39.6,66L39.6,66c-0.6,0-1-0.5-1-1v-1.2c0-0.6,0.5-1,1-1l0,0c0.6,0,1,0.5,1,1V65C40.6,65.5,40.2,66,39.6,66z"/>
<path class="st2" d="M41.6,66L41.6,66c-0.6,0-1-0.5-1-1v-1.2c0-0.6,0.5-1,1-1l0,0c0.6,0,1,0.5,1,1V65C42.6,65.5,42.2,66,41.6,66z"/>
<path class="st2" d="M43.6,66L43.6,66c-0.6,0-1-0.5-1-1v-1.2c0-0.6,0.5-1,1-1l0,0c0.6,0,1,0.5,1,1V65C44.6,65.5,44.2,66,43.6,66z"/>
<path class="st0" d="M32.4,48.6H30c-0.4,0-0.8-0.4-0.8-0.8l0,0c0-0.4,0.4-0.8,0.8-0.8h2.4c0.4,0,0.8,0.4,0.8,0.8l0,0
	C33.2,48.3,32.8,48.6,32.4,48.6z"/>
<path class="st0" d="M29.4,46.5c0,0-0.4,0.5-0.3,1.2c0.1,0.7,0.6,0.6,0.6,0.6L30,47C30,47,29.5,47.1,29.4,46.5z"/>
<path class="st1" d="M36.1,58.1L36.1,58.1c-3.5,0-6.4-2.9-6.4-6.4v-3.3c0-3.5,2.9-6.4,6.4-6.4h0c3.5,0,6.4,2.9,6.4,6.4v3.3
	C42.5,55.2,39.6,58.1,36.1,58.1z"/>
<path class="st0" d="M33.6,48.6h-2.4c-0.4,0-0.8-0.4-0.8-0.8l0,0c0-0.4,0.4-0.8,0.8-0.8h2.4c0.4,0,0.8,0.4,0.8,0.8l0,0
	C34.4,48.3,34,48.6,33.6,48.6z"/>
<path class="st1" d="M30.5,51.3h-0.9c-0.5,0-1-0.4-1-1v0c0-0.5,0.4-1,1-1h0.9c0.5,0,1,0.4,1,1v0C31.4,50.8,31,51.3,30.5,51.3z"/>
<path class="st0" d="M29.1,41.5c0,0,1.4-0.6,4.1-1.1c2.9-0.5,8.2,0,9.5,2.1c1.3,2.1,0.7,7.3,0.6,8s-0.3,1.6-0.3,1.6l-2.7-0.2
	l-1.7-4.2c0,0-1.9-4.5-3.3-4.6C34,42.9,30.3,42.8,29.1,41.5z"/>
<path class="st0" d="M30.6,46.5c0,0-0.4,0.5-0.3,1.2c0.1,0.7,0.6,0.6,0.6,0.6l0.3-1.3C31.2,47,30.7,47.1,30.6,46.5z"/>
<path class="st1" d="M38.5,59.7h-4.6c-1.3,0-2.8-1.3-2.8-2.6l-0.3-0.4c0-1.3,1.8-1.8,3.1-1.8h4.6c1.3,0,2.4,1.1,2.4,2.4v0
	C40.9,58.6,39.9,59.7,38.5,59.7z"/>
<path class="st4" d="M42.4,55.7l0.4-1.2c0,0-1.9,0.5-4.7,2.4c-2.7,1.8-3.9,3.9-3.9,3.9L42.4,55.7z"/>
<path class="st2" d="M31,63.4c0,0,4.3-4,8-6.1c3-1.7,3.4-1.6,3.4-1.6l0,8H30.6L31,63.4z"/>
<path class="st1" d="M38.8,51.8L38.8,51.8c-0.7,0-1.2-0.6-1.2-1.2v-1.3c0-0.7,0.6-1.2,1.2-1.2h0c0.7,0,1.2,0.6,1.2,1.2v1.3
	C40.1,51.2,39.5,51.8,38.8,51.8z"/>
<path class="st2" d="M42.4,55.7c0,0,0.3-0.2,1.1,2.1c0.8,2.3,1.1,5.8,1.1,5.8h-2.5L42.4,55.7z"/>
<path class="st3" d="M29.6,63.8"/>
<path class="st3" d="M128,63.8l4.1-4.2l-0.5,0.1c0,0-0.6,0.1-1.1,0.5c-0.4,0.5-0.3,0.9-0.3,0.9s-2.1,0.8-3.1,1.7
	c-0.8,0.8-1,1.1-1.2,2.6c-0.2,1.5,1.6,2.9,1.6,2.9l1.2,0.6l0.5-1.7c0,0-2.7-2.5-1.9-3.4L128,63.8z"/>
<path class="st2" d="M140.2,62.9c-0.5,0-0.9,0.4-1,0.9c-0.1-0.5-0.5-0.9-1-0.9c-0.5,0-0.9,0.4-1,0.9c-0.1-0.5-0.5-0.9-1-0.9
	c-0.5,0-0.9,0.4-1,0.9c-0.1-0.5-0.5-0.9-1-0.9s-0.9,0.4-1,0.9c-0.1-0.5-0.5-0.9-1-0.9c-0.5,0-0.9,0.4-1,0.9c-0.1-0.5-0.5-0.9-1-0.9
	c-0.5,0-0.9,0.4-1,0.9c-0.1-0.5-0.5-0.9-1-0.9c-0.6,0-1,0.5-1,1V65c0,0.6,0.5,1,1,1c0.5,0,0.9-0.4,1-0.9c0.1,0.5,0.5,0.9,1,0.9
	c0.5,0,0.9-0.4,1-0.9c0.1,0.5,0.5,0.9,1,0.9c0.5,0,0.9-0.4,1-0.9c0.1,0.5,0.5,0.9,1,0.9s0.9-0.4,1-0.9c0.1,0.5,0.5,0.9,1,0.9
	c0.5,0,0.9-0.4,1-0.9c0.1,0.5,0.5,0.9,1,0.9c0.5,0,0.9-0.4,1-0.9c0.1,0.5,0.5,0.9,1,0.9c0.6,0,1-0.5,1-1v-1.2
	C141.2,63.3,140.8,62.9,140.2,62.9z"/>
<path class="st0" d="M130.2,48.6h-2.4c-0.4,0-0.8-0.4-0.8-0.8l0,0c0-0.4,0.4-0.8,0.8-0.8h2.4c0.4,0,0.8,0.4,0.8,0.8l0,0
	C131,48.3,130.6,48.6,130.2,48.6z"/>
<path class="st1" d="M127.1,51.3h-0.9c-0.5,0-1-0.4-1-1l0,0c0-0.5,0.4-1,1-1h0.9c0.5,0,1,0.4,1,1l0,0
	C128.1,50.9,127.6,51.3,127.1,51.3z"/>
<path class="st0" d="M125.7,41.5c0,0,1.4-0.6,4.1-1.1c2.9-0.5,8.2,0,9.5,2.1c1.3,2.1,0.7,7.3,0.6,8c0,0.8-0.3,1.6-0.3,1.6l-2.7-0.2
	l-1.7-4.2c0,0-1.9-4.5-3.3-4.6C130.6,43,127,42.8,125.7,41.5z"/>
<path class="st0" d="M127.3,46.6c0,0-0.4,0.5-0.3,1.2s0.6,0.6,0.6,0.6l0.3-1.3C127.9,47.1,127.3,47.2,127.3,46.6z"/>
<path class="st4" d="M139,55.8l0.4-1.2c0,0-1.9,0.5-4.7,2.4c-2.7,1.8-3.9,3.9-3.9,3.9L139,55.8z"/>
<path class="st2" d="M127.6,63.4c0,0,4.3-4,8-6.1c3-1.7,3.4-1.6,3.4-1.6l0,8h-11.7L127.6,63.4z"/>
<path class="st1" d="M135.5,51.8L135.5,51.8c-0.7,0-1.2-0.6-1.2-1.2v-1.3c0-0.7,0.6-1.2,1.2-1.2l0,0c0.7,0,1.2,0.6,1.2,1.2v1.3
	C136.7,51.2,136.1,51.8,135.5,51.8z"/>
<path class="st2" d="M139,55.8c0,0,0.3-0.2,1.1,2.1c0.8,2.3,1.1,5.8,1.1,5.8h-2.5L139,55.8z"/>
<path class="st3" d="M126.2,63.8"/>
</svg>
