<?xml version="1.0" encoding="utf-8"?>
<!-- Generator: Adobe Illustrator 21.0.1, SVG Export Plug-In . SVG Version: 6.00 Build 0)  -->
<svg version="1.1" id="Layer_1" xmlns="http://www.w3.org/2000/svg" xmlns:xlink="http://www.w3.org/1999/xlink" x="0px" y="0px"
	 viewBox="0 0 16 19.9" style="enable-background:new 0 0 16 19.9;" xml:space="preserve">
<style type="text/css">
	.st0{fill:#FFE100;}
	.st1{fill:url(#SVGID_1_);}
	.st2{fill:url(#SVGID_2_);}
	.st3{fill:#F7AA9A;}
</style>
<path class="st0" d="M4.3,5.3H1.6c0,0-0.6,0-0.6-0.5c0,0-0.5,0.5-0.3,1.3C0.9,6.8,1.4,7,1.6,7h2.7c0.4,0,0.8-0.4,0.8-0.9
	C5.1,5.7,4.7,5.3,4.3,5.3z"/>
<linearGradient id="SVGID_1_" gradientUnits="userSpaceOnUse" x1="8.1503" y1="25.5603" x2="8.1503" y2="14.1854">
	<stop  offset="3.217822e-02" style="stop-color:#F76574"/>
	<stop  offset="0.8787" style="stop-color:#F7AA9A"/>
</linearGradient>
<path class="st1" d="M15.2,6.7c0-3.9-3.4-5.6-7.4-5.6S1,2.8,1,6.7v3.6c0,1.7,1.4,5.3,2.4,6.6l0.2,0.2c-0.1,0.5,0.2,1.4,1.6,1.2
	c0,0,3.4,3,7.6,0.7c2.6-1.3,2.5-6.9,2.5-8.7V6.7H15.2z"/>
<path class="st0" d="M15.3,2.4c-0.9-1.7-4.4-2.8-7.9-2.3c-3,0.5-6.2,2.6-6.2,2.6C2.5,4.1,5.7,2.8,7.3,3c1.6,0.1,3.6,5.1,3.6,5.1
	l1.7,5.6c0,0,0.5,1,1.4,1.1c0.5,0.1,1.4-0.3,1.4-0.3S16.6,4.8,15.3,2.4z"/>
<path class="st0" d="M7.4,2.8c0,0-1.3,2,0.4,3.5c1.2,1.1,3,1.5,3,1.5L11,5.5L9,2.8H7.4z"/>
<path class="st0" d="M4.8,5.3H2.2c0,0-0.6,0-0.6-0.5c0,0-0.5,0.5-0.3,1.3C1.5,6.8,2,7,2.2,7h2.7c0.5,0,0.8-0.4,0.8-0.8
	C5.7,5.7,5.3,5.3,4.8,5.3z"/>
<path class="st3" d="M2.2,11.4H1.1c-0.5,0-1-0.4-1-1v-0.1c0-0.5,0.4-1,1-1h1.1c0.5,0,1,0.4,1,1v0.1C3.1,11,2.7,11.4,2.2,11.4z"/>
<circle class="st3" cx="10.5" cy="8.8" r="1.9"/>
<path d="M2.8,8.7L2.8,8.7c-0.2,0-0.3-0.1-0.3-0.3V7.7c0-0.1,0.1-0.3,0.3-0.3l0,0c0.1,0,0.3,0.1,0.3,0.3v0.7C3.1,8.6,3,8.7,2.8,8.7z"
	/>
<path d="M1.6,8.7L1.6,8.7c-0.2,0-0.3-0.1-0.3-0.3V7.7c0-0.1,0.1-0.3,0.3-0.3l0,0c0.1,0,0.3,0.1,0.3,0.3v0.7C1.9,8.6,1.8,8.7,1.6,8.7
	z"/>
</svg>
