<?xml version="1.0" encoding="utf-8"?>
<!-- Generator: Adobe Illustrator 21.0.1, SVG Export Plug-In . SVG Version: 6.00 Build 0)  -->
<svg version="1.1" id="Layer_1" xmlns="http://www.w3.org/2000/svg" xmlns:xlink="http://www.w3.org/1999/xlink" x="0px" y="0px"
	 viewBox="0 0 73.7 107.6" style="enable-background:new 0 0 73.7 107.6;" xml:space="preserve">
<style type="text/css">
	.st0{fill:#FFCC66;}
	.st1{fill:#FABB9F;}
	.st2{fill:#333333;}
	.st3{fill:#ED2E2E;}
	.st4{fill:#FFFFFF;}
</style>
<path class="st0" d="M35.3,48.6h-2.4c-0.4,0-0.8-0.4-0.8-0.8l0,0c0-0.4,0.4-0.8,0.8-0.8h2.4c0.4,0,0.8,0.4,0.8,0.8l0,0
	C36.1,48.3,35.7,48.6,35.3,48.6z"/>
<path class="st0" d="M32.4,46.6c0,0-0.4,0.5-0.3,1.2c0.1,0.7,0.6,0.6,0.6,0.6l0.3-1.3C33,47.1,32.4,47.2,32.4,46.6z"/>
<path class="st1" d="M42.3,60.8h-4.6c-1.3,0-2.8-1.3-2.8-2.6l-0.3-0.4c0-1.3,3.4-1.3,4.7-1.3l3-0.4c1.3,0,2.4,1.1,2.4,2.4v0
	C44.7,59.7,43.6,60.8,42.3,60.8z"/>
<path class="st1" d="M42.1,42H36c-1.9,0-3.4,1.5-3.4,3.4v6.4c0.2-0.1,0.5-0.1,0.7-0.1c1.5,0,2.7,1.4,2.7,3.2c0,1.3-0.4,2.3-1.3,2.8
	c0.4,0.2,0.8,0.4,1.3,0.4h6.1c1.9,0,3.4-1.5,3.4-3.4v-9.3C45.5,43.5,43.9,42,42.1,42z"/>
<path class="st2" d="M-62.1,66L-62.1,66c-0.6,0-1-0.5-1-1v-1.2c0-0.6,0.5-1,1-1l0,0c0.6,0,1,0.5,1,1V65C-61.1,65.5-61.6,66-62.1,66z
	"/>
<path class="st3" d="M-62.3,63.8l4.1-4.2l-0.5,0.1c0,0-0.6,0.1-1.1,0.5C-60.2,60.6-60,61-60,61s-2.1,0.8-3.1,1.7
	c-0.8,0.8-1.4,1.2-1.6,2.7c-0.2,1.5,0.4,2.8,0.4,2.8l1.2,0.6l0.5-1.7c0,0-1.2-2.5-0.4-3.4L-62.3,63.8z"/>
<path class="st2" d="M-60.1,66L-60.1,66c-0.6,0-1-0.5-1-1v-1.2c0-0.6,0.5-1,1-1l0,0c0.6,0,1,0.5,1,1V65C-59.1,65.5-59.5,66-60.1,66z
	"/>
<path class="st2" d="M-58.1,66L-58.1,66c-0.6,0-1-0.5-1-1v-1.2c0-0.6,0.5-1,1-1l0,0c0.6,0,1,0.5,1,1V65C-57.1,65.5-57.5,66-58.1,66z
	"/>
<path class="st2" d="M-56.1,66L-56.1,66c-0.6,0-1-0.5-1-1v-1.2c0-0.6,0.5-1,1-1l0,0c0.6,0,1,0.5,1,1V65C-55.1,65.5-55.5,66-56.1,66z
	"/>
<path class="st2" d="M-54.1,66L-54.1,66c-0.6,0-1-0.5-1-1v-1.2c0-0.6,0.5-1,1-1l0,0c0.6,0,1,0.5,1,1V65C-53.1,65.5-53.5,66-54.1,66z
	"/>
<path class="st2" d="M-52.1,66L-52.1,66c-0.6,0-1-0.5-1-1v-1.2c0-0.6,0.5-1,1-1l0,0c0.6,0,1,0.5,1,1V65C-51.1,65.5-51.5,66-52.1,66z
	"/>
<path class="st2" d="M-50.1,66L-50.1,66c-0.6,0-1-0.5-1-1v-1.2c0-0.6,0.5-1,1-1l0,0c0.6,0,1,0.5,1,1V65C-49.1,65.5-49.5,66-50.1,66z
	"/>
<path class="st0" d="M-61.3,48.6h-2.4c-0.4,0-0.8-0.4-0.8-0.8l0,0c0-0.4,0.4-0.8,0.8-0.8h2.4c0.4,0,0.8,0.4,0.8,0.8l0,0
	C-60.5,48.3-60.9,48.6-61.3,48.6z"/>
<path class="st0" d="M-64.3,46.5c0,0-0.4,0.5-0.3,1.2c0.1,0.7,0.6,0.6,0.6,0.6l0.3-1.3C-63.7,47-64.2,47.1-64.3,46.5z"/>
<path class="st1" d="M-57.6,58.1L-57.6,58.1c-3.5,0-6.4-2.9-6.4-6.4v-3.3c0-3.5,2.9-6.4,6.4-6.4h0c3.5,0,6.4,2.9,6.4,6.4v3.3
	C-51.2,55.2-54.1,58.1-57.6,58.1z"/>
<path class="st0" d="M-60.1,48.6h-2.4c-0.4,0-0.8-0.4-0.8-0.8l0,0c0-0.4,0.4-0.8,0.8-0.8h2.4c0.4,0,0.8,0.4,0.8,0.8l0,0
	C-59.3,48.3-59.7,48.6-60.1,48.6z"/>
<path class="st1" d="M-63.2,51.3h-0.9c-0.5,0-1-0.4-1-1v0c0-0.5,0.4-1,1-1h0.9c0.5,0,1,0.4,1,1v0C-62.3,50.8-62.7,51.3-63.2,51.3z"
	/>
<path class="st0" d="M-64.6,41.5c0,0,1.4-0.6,4.1-1.1c2.9-0.5,8.2,0,9.5,2.1s0.7,7.3,0.6,8s-0.3,1.6-0.3,1.6l-2.7-0.2l-1.7-4.2
	c0,0-1.9-4.5-3.3-4.6C-59.7,42.9-63.3,42.8-64.6,41.5z"/>
<path class="st0" d="M-63.1,46.5c0,0-0.4,0.5-0.3,1.2c0.1,0.7,0.6,0.6,0.6,0.6l0.3-1.3C-62.4,47-63,47.1-63.1,46.5z"/>
<path class="st1" d="M-55.1,59.7h-4.6c-1.3,0-2.8-1.3-2.8-2.6l-0.3-0.4c0-1.3,1.8-1.8,3.1-1.8h4.6c1.3,0,2.4,1.1,2.4,2.4v0
	C-52.8,58.6-53.8,59.7-55.1,59.7z"/>
<path class="st4" d="M-51.3,55.7l0.4-1.2c0,0-1.9,0.5-4.7,2.4c-2.7,1.8-3.9,3.9-3.9,3.9L-51.3,55.7z"/>
<path class="st2" d="M-62.7,63.4c0,0,4.3-4,8-6.1c3-1.7,3.4-1.6,3.4-1.6l0,8h-11.7L-62.7,63.4z"/>
<path class="st1" d="M-54.8,51.8L-54.8,51.8c-0.7,0-1.2-0.6-1.2-1.2v-1.3c0-0.7,0.6-1.2,1.2-1.2l0,0c0.7,0,1.2,0.6,1.2,1.2v1.3
	C-53.6,51.2-54.2,51.8-54.8,51.8z"/>
<path class="st2" d="M-51.3,55.7c0,0,0.3-0.2,1.1,2.1s1.1,5.8,1.1,5.8h-2.5L-51.3,55.7z"/>
<path class="st3" d="M-64.1,63.8"/>
<path class="st3" d="M34.3,63.8l4.1-4.2L38,59.7c0,0-0.6,0.1-1.1,0.5c-0.4,0.5-0.3,0.9-0.3,0.9s-2.1,0.8-3.1,1.7
	c-0.8,0.8-1,1.1-1.2,2.6c-0.2,1.5,1.6,2.9,1.6,2.9L35,69l0.5-1.7c0,0-2.7-2.5-1.9-3.4L34.3,63.8z"/>
<path class="st2" d="M46.5,62.9c-0.5,0-0.9,0.4-1,0.9c-0.1-0.5-0.5-0.9-1-0.9c-0.5,0-0.9,0.4-1,0.9c-0.1-0.5-0.5-0.9-1-0.9
	c-0.5,0-0.9,0.4-1,0.9c-0.1-0.5-0.5-0.9-1-0.9s-0.9,0.4-1,0.9c-0.1-0.5-0.5-0.9-1-0.9c-0.5,0-0.9,0.4-1,0.9c-0.1-0.5-0.5-0.9-1-0.9
	c-0.5,0-0.9,0.4-1,0.9c-0.1-0.5-0.5-0.9-1-0.9c-0.6,0-1,0.5-1,1V65c0,0.6,0.5,1,1,1c0.5,0,0.9-0.4,1-0.9c0.1,0.5,0.5,0.9,1,0.9
	c0.5,0,0.9-0.4,1-0.9c0.1,0.5,0.5,0.9,1,0.9c0.5,0,0.9-0.4,1-0.9c0.1,0.5,0.5,0.9,1,0.9s0.9-0.4,1-0.9c0.1,0.5,0.5,0.9,1,0.9
	c0.5,0,0.9-0.4,1-0.9c0.1,0.5,0.5,0.9,1,0.9c0.5,0,0.9-0.4,1-0.9c0.1,0.5,0.5,0.9,1,0.9c0.6,0,1-0.5,1-1v-1.2
	C47.6,63.3,47.1,62.9,46.5,62.9z"/>
<path class="st0" d="M36.5,48.6h-2.4c-0.4,0-0.8-0.4-0.8-0.8l0,0c0-0.4,0.4-0.8,0.8-0.8h2.4c0.4,0,0.8,0.4,0.8,0.8l0,0
	C37.3,48.3,37,48.6,36.5,48.6z"/>
<path class="st1" d="M33.4,51.3h-0.9c-0.5,0-1-0.4-1-1l0,0c0-0.5,0.4-1,1-1h0.9c0.5,0,1,0.4,1,1l0,0C34.4,50.9,33.9,51.3,33.4,51.3z
	"/>
<path class="st0" d="M32,41.5c0,0,1.4-0.6,4.1-1.1c2.9-0.5,8.2,0,9.5,2.1s0.7,7.3,0.6,8c0,0.8-0.3,1.6-0.3,1.6l-2.7-0.2l-1.7-4.2
	c0,0-1.9-4.5-3.3-4.6C36.9,43,33.3,42.8,32,41.5z"/>
<path class="st0" d="M33.6,46.6c0,0-0.4,0.5-0.3,1.2c0.1,0.7,0.6,0.6,0.6,0.6l0.3-1.3C34.2,47.1,33.6,47.2,33.6,46.6z"/>
<path class="st4" d="M45.3,55.8l0.4-1.2c0,0-1.9,0.5-4.7,2.4c-2.7,1.8-3.9,3.9-3.9,3.9L45.3,55.8z"/>
<path class="st2" d="M33.9,63.4c0,0,4.3-4,8-6.1c3-1.7,3.4-1.6,3.4-1.6l0,8H33.5L33.9,63.4z"/>
<path class="st1" d="M41.8,51.8L41.8,51.8c-0.7,0-1.2-0.6-1.2-1.2v-1.3c0-0.7,0.6-1.2,1.2-1.2l0,0c0.7,0,1.2,0.6,1.2,1.2v1.3
	C43,51.2,42.5,51.8,41.8,51.8z"/>
<path class="st2" d="M45.3,55.8c0,0,0.3-0.2,1.1,2.1s1.1,5.8,1.1,5.8h-2.5L45.3,55.8z"/>
<path class="st3" d="M32.6,63.8"/>
</svg>
