<?xml version="1.0" encoding="utf-8"?>
<!-- Generator: Adobe Illustrator 21.0.1, SVG Export Plug-In . SVG Version: 6.00 Build 0)  -->
<svg version="1.1" id="Layer_1" xmlns="http://www.w3.org/2000/svg" xmlns:xlink="http://www.w3.org/1999/xlink" x="0px" y="0px"
	 viewBox="0 0 32 40.1" style="enable-background:new 0 0 32 40.1;" xml:space="preserve">
<style type="text/css">
	.st0{fill:#FFE100;}
	.st1{fill:url(#SVGID_1_);}
	.st2{fill:#F7AA9A;}
</style>
<path class="st0" d="M8.7,11.4H3.2c0,0-1.2,0-1.2-1c0,0-1,1-0.6,2.6c0.4,1.4,1.4,1.8,1.8,1.8h5.5c0.8,0,1.6-0.8,1.6-1.8
	C10.3,12.2,9.5,11.4,8.7,11.4z"/>
<linearGradient id="SVGID_1_" gradientUnits="userSpaceOnUse" x1="16.3082" y1="-11.5763" x2="16.3082" y2="11.4543" gradientTransform="matrix(1 0 0 -1 0 40.2185)">
	<stop  offset="3.217822e-02" style="stop-color:#F76574"/>
	<stop  offset="0.8787" style="stop-color:#F7AA9A"/>
</linearGradient>
<path class="st1" d="M30.8,20.9v-7.3h-0.2c0-7.9-6.9-11.3-15-11.3S1.8,5.7,1.8,13.6v7.3c0,0.8,0.2,2,0.4,3.2c1-0.6,2-1,3.2-1
	c3.2,0,5.5,2,5.9,5.9c0.4,2.8-0.4,6.5-3,7.1c0,1,0.6,2.6,3.2,2.2c0,0,5.7,4.3,14.2-0.4C31.4,35.5,30.8,24.5,30.8,20.9z"/>
<path class="st0" d="M30.8,4.9c-1.8-3.4-8.9-5.7-16-4.7c-3.4,0.6-6.7,2.4-9.3,3.2C3.4,4.1,2,3.7,2,3.7c2.6,4,9.3,2,12.6,2.4
	c3.2,0.2,7.3,10.3,7.3,10.3l3.4,11.3c0,0,1,2,2.8,2.2c1,0.2,2.8-0.6,2.8-0.6S33.4,9.8,30.8,4.9z"/>
<path class="st0" d="M14.8,5.7c0,0-2.6,4,0.8,7.1c2.4,2.2,6.1,3,6.1,3l0.4-4.7l-4-5.5H14.8z"/>
<path d="M5.5,16L5.5,16c-0.4,0-0.6-0.2-0.6-0.6V14c0-0.2,0.2-0.6,0.6-0.6l0,0c0.2,0,0.6,0.2,0.6,0.6v1.4C6.1,15.8,5.9,16,5.5,16z"/>
<path d="M3,15.8L3,15.8c-0.4,0-0.6-0.2-0.6-0.6v-1.4c0-0.2,0.2-0.6,0.6-0.6l0,0c0.2,0,0.6,0.2,0.6,0.6v1.4C3.6,15.6,3.4,15.8,3,15.8
	z"/>
<path class="st2" d="M4.3,21.5H2c-1,0-2-0.8-2-2v-0.2c0-1,0.8-2,2-2h2.2c1,0,2,0.8,2,2v0.2C6.1,20.7,5.3,21.5,4.3,21.5z"/>
<circle class="st2" cx="21.9" cy="17.7" r="3.8"/>
<path class="st0" d="M8.5,11l-5.1,0.4c0,0-1.2,0.2-1.2-0.8c0,0-0.8,1-0.4,2.6c0.6,1.4,1.6,1.6,2,1.6l5.3-0.6c1,0,1.6-0.8,1.4-1.6
	C10.5,11.6,9.5,10.8,8.5,11z"/>
</svg>
