<?xml version="1.0" encoding="utf-8"?>
<!-- Generator: Adobe Illustrator 21.0.1, SVG Export Plug-In . SVG Version: 6.00 Build 0)  -->
<svg version="1.1" id="Layer_1" xmlns="http://www.w3.org/2000/svg" xmlns:xlink="http://www.w3.org/1999/xlink" x="0px" y="0px"
	 viewBox="0 0 31.8 40.3" style="enable-background:new 0 0 31.8 40.3;" xml:space="preserve">
<style type="text/css">
	.st0{fill:#FFE100;}
	.st1{fill:url(#SVGID_1_);}
	.st2{fill:#F7AA9A;}
</style>
<path class="st0" d="M8.3,10.8H2.9c0,0-1.2,0-1.2-1c0,0-1,1-0.6,2.6c0.4,1.4,1.4,1.8,1.8,1.8h5.5c0.8,0,1.6-0.8,1.6-1.8
	C10,11.6,9.2,10.8,8.3,10.8z"/>
<linearGradient id="SVGID_1_" gradientUnits="userSpaceOnUse" x1="16.1446" y1="-11.4831" x2="16.1446" y2="11.5475" gradientTransform="matrix(1 0 0 -1 0 40.3117)">
	<stop  offset="3.217822e-02" style="stop-color:#F76574"/>
	<stop  offset="0.8787" style="stop-color:#F7AA9A"/>
</linearGradient>
<path class="st1" d="M30.4,13.6c0-7.9-6.9-11.3-15-11.3S1.7,5.7,1.7,13.6v7.3c0,3.4,2.8,10.7,4.9,13.4l0.4,0.4
	c-0.2,1,0.4,2.8,3.2,2.4c0,0,6.9,6.1,15.4,1.4c5.3-2.6,5.1-14,5.1-17.6v-7.3H30.4z"/>
<path class="st0" d="M30.6,4.9c-1.8-3.4-8.9-5.7-16-4.7C8.6,1.3,2.1,5.5,2.1,5.5c2.6,2.8,9.1,0.2,12.4,0.6
	c3.2,0.2,7.3,10.3,7.3,10.3l3.4,11.3c0,0,1,2,2.8,2.2c1,0.2,2.8-0.6,2.8-0.6S33.3,9.8,30.6,4.9z"/>
<path class="st0" d="M14.6,5.7c0,0-2.6,4,0.8,7.1c2.4,2.2,6.1,3,6.1,3l0.4-4.7l-4-5.5H14.6z"/>
<path class="st0" d="M9.4,10.8H4.1c0,0-1.2,0-1.2-1c0,0-1,1-0.6,2.6c0.4,1.4,1.4,1.8,1.8,1.8h5.5c1,0,1.6-0.8,1.6-1.6
	C11.2,11.6,10.4,10.8,9.4,10.8z"/>
<path class="st2" d="M4.1,23.1H1.9c-1,0-2-0.8-2-2v-0.2c0-1,0.8-2,2-2h2.2c1,0,2,0.8,2,2v0.2C5.9,22.3,5.1,23.1,4.1,23.1z"/>
<circle class="st2" cx="20.9" cy="17.9" r="3.8"/>
<path d="M5.3,17.7L5.3,17.7c-0.4,0-0.6-0.2-0.6-0.6v-1.4c0-0.2,0.2-0.6,0.6-0.6l0,0c0.2,0,0.6,0.2,0.6,0.6v1.4
	C5.9,17.5,5.7,17.7,5.3,17.7z"/>
<path d="M2.9,17.7L2.9,17.7c-0.4,0-0.6-0.2-0.6-0.6v-1.4c0-0.2,0.2-0.6,0.6-0.6l0,0c0.2,0,0.6,0.2,0.6,0.6v1.4
	C3.5,17.5,3.3,17.7,2.9,17.7z"/>
</svg>
